<svg fill="none" xmlns="http://www.w3.org/2000/svg" viewBox="0 0 40 40">
  <path d="M20 40c11.046 0 20-8.954 20-20S31.046 0 20 0 0 8.954 0 20s8.954 20 20 20Z" fill="#49A499"/>
  <path fill-rule="evenodd" clip-rule="evenodd" d="M29.455 16.168a7.392 7.392 0 0 0-.969-1.542V10l-.789.5-2.534 1.618a11.537 11.537 0 0 0-4.857-1.06c-4.156 0-7.746 2.08-9.15 5.11H8l.738.85.001.002 1.811 2.113c.069 2.008 1.074 3.8 2.638 5.14l-.997 1.736-.243.437.432.256 3.193 1.916.45.273.26-.453 1.154-2.017a11.89 11.89 0 0 0 2.869.358c1.001 0 1.961-.133 2.869-.358l1.154 2.017.26.453.449-.273 3.193-1.916.433-.256-.242-.435-.999-1.748c.864-.74 1.554-1.611 2.012-2.594H32v-5.5h-2.545Zm-16.017 8.06Zm2.515 4.393 1.388-2.426a11.74 11.74 0 0 1 0 0l-1.228 2.146-.16.28Zm7.34-2.385 1.365 2.385.28-.17 3.194-1.916.27-.16-.27.16-3.195 1.916-.279.17-.16-.28-1.204-2.105Zm3.88-2.017c.937-.775 1.672-1.698 2.137-2.745h2.495v-5.11 5.11H29.31c-.465 1.047-1.2 1.97-2.137 2.745Zm-1.936-11.16 2.416-1.547-2.416 1.547Zm-.582-.27a10.98 10.98 0 0 0-4.35-.898c-3.52 0-7.236 1.698-8.604 5.11H9.815 11.7c1.367-3.412 5.085-5.11 8.605-5.11 1.504 0 2.975.307 4.348.898Zm-13.293 6.01Zm17.548-1.797h2.256-2.256Zm-14.653 7.087-1.188 2.067 1.188-2.067Zm14.522-6.892h2.192v3.443H28.78l-.05.122c-.516 1.29-1.392 2.322-2.493 3.173l-.135.104 1.178 2.048-2.312 1.387-1.295-2.247-.386.112c-.93.265-1.932.412-2.98.412-1.094 0-2.167-.175-3.22-.481l-.147-.043-1.295 2.247-2.311-1.387 1.177-2.048-.134-.104c-1.65-1.274-2.82-3.038-2.82-5.136v-.073l-1.316-1.53h1.593l.05-.122c1.327-3.314 4.953-4.988 8.423-4.988 1.689 0 3.334.393 4.844 1.147l.099.05 2.209-1.415v3.122l.049.055c.531.598.923 1.282 1.223 2.03l.049.122Zm-11.142-4.248-.19.043.226.999.19-.043a11.045 11.045 0 0 1 2.443-.265c.85 0 1.67.09 2.442.265l.19.043.226-.999-.19-.043a12.049 12.049 0 0 0-2.668-.294c-.924 0-1.818.1-2.669.294Zm.183.809.023-.005c.78-.176 1.608-.265 2.463-.265s1.682.09 2.462.264l.023.006.14-.619-.14.619a11.24 11.24 0 0 0-2.485-.27c-.864 0-1.698.091-2.486.27Zm7.916 3.05a.396.396 0 0 1-.317-.133.48.48 0 0 1-.107-.312.48.48 0 0 1 .107-.312.396.396 0 0 1 .317-.132c.151 0 .251.056.317.132a.48.48 0 0 1 .107.312.48.48 0 0 1-.107.312.396.396 0 0 1-.317.132Zm0 1.027c.467 0 .83-.183 1.074-.467.24-.28.356-.646.356-1.005 0-.36-.116-.726-.356-1.005-.244-.284-.607-.467-1.074-.467-.467 0-.83.183-1.074.467-.24.28-.356.646-.356 1.005 0 .36.116.726.356 1.005.244.284.607.468 1.074.468Zm-.54-.304c.154.07.334.11.54.11.774 0 1.184-.565 1.23-1.163-.046.598-.456 1.163-1.23 1.163a1.3 1.3 0 0 1-.54-.11Zm.745-1.777a.681.681 0 0 0-.205-.03c-.413 0-.619.32-.619.64 0-.32.206-.64.619-.64.075 0 .144.01.205.03Z" fill="#fff"/>
</svg>