<svg fill="none" xmlns="http://www.w3.org/2000/svg" viewBox="0 0 40 40">
  <rect width="40" height="40" rx="20" fill="#D2F286"/>
  <path d="M10.833 10.783h-.05v16.66H11.375v1.774H14.432V27.442h11.136V29.217H28.625V27.442H29.216V10.783H10.834Zm2.907 17.742h-1.674v-1.083h1.674v1.083Zm14.194 0h-1.675v-1.083h1.675v1.083Zm.591-1.774h-17.05V11.475h17.05V26.75Z" fill="#000" stroke="#000" stroke-width=".1"/>
  <path d="M27.55 12.5v-.05H12.45V25.05H27.55V12.5Zm-.7 11.882h-13.7V13.118h13.7v11.264Z" fill="#000" stroke="#000" stroke-width=".1"/>
  <path d="M17.575 16.667v.569a2.526 2.526 0 0 0-1.082.445l-.408-.408-.035-.035-.035.035-.409.409-.035.035.035.035.406.406c-.243.31-.382.673-.443 1.084h-.62v.683h.62c.06.411.2.773.443 1.084l-.406.406-.035.035.035.035.409.409.035.035.035-.035.406-.406c.31.243.673.382 1.084.443v.62h.683v-.62a2.527 2.527 0 0 0 1.082-.445l.408.408.035.035.035-.035.409-.409.035-.035-.035-.035-.406-.406c.243-.31.382-.673.443-1.084h.62v-.683h-.62a2.528 2.528 0 0 0-.445-1.082l.408-.408.035-.035-.035-.035-.409-.409-.035-.035-.035.035-.406.406a2.25 2.25 0 0 0-1.084-.443v-.62h-.683v.05Zm.341 1.217c.935 0 1.7.765 1.7 1.7 0 .934-.765 1.7-1.7 1.7-.934 0-1.7-.766-1.7-1.7 0-.935.766-1.7 1.7-1.7Z" fill="#000" stroke="#000" stroke-width=".1"/>
</svg>