<svg fill="none" xmlns="http://www.w3.org/2000/svg" viewBox="0 0 40 40">
  <rect width="40" height="40" rx="20" fill="#DEC690"/>
  <path d="m27.815 10.948-.03-.048H12.214l-.029.048-4.27 7.014-.04.065.052.055 12 12.986.073.08.073-.08 12-12.986.052-.055-.04-.065-4.27-7.014Zm-18.316 7.49h5.28l3.91 9.945-9.19-9.945Zm6.271 0h8.495L20 29.216l-4.23-10.778Zm7.466-6.618 1.194 5.699h-8.79l1.124-5.7h6.472Zm-1.922 16.56 3.942-9.942h5.245l-9.187 9.942Zm5.935-16.56 3.479 5.699H25.34l-1.194-5.7h3.103ZM9.272 17.518l3.478-5.7h3.07l-1.091 5.7H9.272Z" fill="#000" stroke="#000" stroke-width=".2"/>
</svg>